{
  "accessors": [
    {
      "bufferView": 2,
      "componentType": 5126,
      "count": 11940,
      "max": [
        1.3751920461654663,
        11.37535572052002,
        1.4361579418182373
      ],
      "min": [
        -1.672888994216919,
        8.55245304107666,
        -0.5498870015144348
      ],
      "type": "VEC3"
    },
    {
      "bufferView": 2,
      "byteOffset": 143280,
      "componentType": 5126,
      "count": 11940,
      "max": [
        0.9997573494911194,
        0.9994385242462158,
        0.9999687671661377
      ],
      "min": [
        -0.9998855590820313,
        -0.9999462366104126,
        -0.9999781847000122
      ],
      "type": "VEC3"
    },
    {
      "bufferView": 1,
      "componentType": 5126,
      "count": 11940,
      "max": [
        0.9956709742546082,
        0.9933909773826599
      ],
      "min": [
        0.004139000084251165,
        0.004135999828577042
      ],
      "type": "VEC2"
    },
    {
      "bufferView": 0,
      "componentType": 5125,
      "count": 54126,
      "type": "SCALAR"
    }
  ],
  "asset": {
    "extras": {
      "author": "JevinJones (https://sketchfab.com/JevinJ)",
      "license": "CC-BY-4.0 (http://creativecommons.org/licenses/by/4.0/)",
      "source": "https://sketchfab.com/3d-models/cantharellus-formosus-mushroom-81b06e5fb337405b9d277048a39758f8",
      "title": "Cantharellus formosus mushroom"
    },
    "generator": "Sketchfab-12.68.0",
    "version": "2.0"
  },
  "bufferViews": [
    {
      "buffer": 0,
      "byteLength": 216504,
      "name": "floatBufferViews",
      "target": 34963
    },
    {
      "buffer": 0,
      "byteLength": 95520,
      "byteOffset": 216504,
      "byteStride": 8,
      "name": "floatBufferViews",
      "target": 34962
    },
    {
      "buffer": 0,
      "byteLength": 286560,
      "byteOffset": 312024,
      "byteStride": 12,
      "name": "floatBufferViews",
      "target": 34962
    }
  ],
  "buffers": [
    {
      "byteLength": 598584,
      "uri": "scene.bin"
    }
  ],
  "extensionsUsed": [
    "KHR_materials_unlit"
  ],
  "images": [
    {
      "uri": "textures/CantharellusFormosus_rt_baseColor.png"
    }
  ],
  "materials": [
    {
      "doubleSided": true,
      "extensions": {
        "KHR_materials_unlit": {}
      },
      "name": "CantharellusFormosus_rt",
      "pbrMetallicRoughness": {
        "baseColorTexture": {
          "index": 0
        },
        "metallicFactor": 0.0
      }
    }
  ],
  "meshes": [
    {
      "name": "Object_0",
      "primitives": [
        {
          "attributes": {
            "NORMAL": 1,
            "POSITION": 0,
            "TEXCOORD_0": 2
          },
          "indices": 3,
          "material": 0,
          "mode": 4
        }
      ]
    }
  ],
  "nodes": [
    {
      "children": [
        1
      ],
      "matrix": [
        1.0,
        0.0,
        0.0,
        0.0,
        0.0,
        2.220446049250313e-16,
        -1.0,
        0.0,
        0.0,
        1.0,
        2.220446049250313e-16,
        0.0,
        0.0,
        0.0,
        0.0,
        1.0
      ],
      "name": "Sketchfab_model"
    },
    {
      "children": [
        2
      ],
      "name": "CantharellusFormosus_rt.OBJ.cleaner.materialmerger.gles"
    },
    {
      "mesh": 0,
      "name": "Object_2"
    }
  ],
  "samplers": [
    {
      "magFilter": 9729,
      "minFilter": 9987,
      "wrapS": 10497,
      "wrapT": 10497
    }
  ],
  "scene": 0,
  "scenes": [
    {
      "name": "Sketchfab_Scene",
      "nodes": [
        0
      ]
    }
  ],
  "textures": [
    {
      "sampler": 0,
      "source": 0
    }
  ]
}
