{
  "accessors": [
    {
      "bufferView": 2,
      "componentType": 5126,
      "count": 1957,
      "max": [
        0.6764160990715027,
        0.9573169946670532,
        0.689927339553833
      ],
      "min": [
        -0.6676222681999207,
        -0.957444965839386,
        -0.6916595101356506
      ],
      "type": "VEC3"
    },
    {
      "bufferView": 2,
      "byteOffset": 23484,
      "componentType": 5126,
      "count": 1957,
      "max": [
        0.9979442358016968,
        0.9979375600814819,
        0.9994551539421082
      ],
      "min": [
        -1.0,
        -0.9998924732208252,
        -0.9992479085922241
      ],
      "type": "VEC3"
    },
    {
      "bufferView": 3,
      "componentType": 5126,
      "count": 1957,
      "max": [
        0.994907021522522,
        0.998511791229248,
        0.9998464584350586,
        1.0
      ],
      "min": [
        -0.9950104355812073,
        -0.9991300106048584,
        -0.9995586276054382,
        -1.0
      ],
      "type": "VEC4"
    },
    {
      "bufferView": 1,
      "componentType": 5126,
      "count": 1957,
      "max": [
        0.9773175716400146,
        0.9996458888053894
      ],
      "min": [
        0.00035412362194620073,
        0.0003541111946105957
      ],
      "type": "VEC2"
    },
    {
      "bufferView": 1,
      "byteOffset": 15656,
      "componentType": 5126,
      "count": 1957,
      "max": [
        0.9773175716400146,
        0.9996458888053894
      ],
      "min": [
        0.00035412362194620073,
        0.0003541111946105957
      ],
      "type": "VEC2"
    },
    {
      "bufferView": 1,
      "byteOffset": 31312,
      "componentType": 5126,
      "count": 1957,
      "max": [
        0.9773175716400146,
        0.9996458888053894
      ],
      "min": [
        0.00035412362194620073,
        0.0003541111946105957
      ],
      "type": "VEC2"
    },
    {
      "bufferView": 1,
      "byteOffset": 46968,
      "componentType": 5126,
      "count": 1957,
      "max": [
        0.9773175716400146,
        0.9996458888053894
      ],
      "min": [
        0.00035412362194620073,
        0.0003541111946105957
      ],
      "type": "VEC2"
    },
    {
      "bufferView": 0,
      "componentType": 5125,
      "count": 8994,
      "type": "SCALAR"
    }
  ],
  "asset": {
    "extras": {
      "author": "vladlenfilimonov (https://sketchfab.com/vladlenfilimonov)",
      "license": "SKETCHFAB Standard (https://sketchfab.com/licenses)",
      "source": "https://sketchfab.com/3d-models/porcini-mushroom-ce3f1e9d88cc486f84afe04faa1e2078",
      "title": "Porcini Mushroom"
    },
    "generator": "Sketchfab-16.87.0",
    "version": "2.0"
  },
  "bufferViews": [
    {
      "buffer": 0,
      "byteLength": 35976,
      "name": "floatBufferViews",
      "target": 34963
    },
    {
      "buffer": 0,
      "byteLength": 62624,
      "byteOffset": 35976,
      "byteStride": 8,
      "name": "floatBufferViews",
      "target": 34962
    },
    {
      "buffer": 0,
      "byteLength": 46968,
      "byteOffset": 98600,
      "byteStride": 12,
      "name": "floatBufferViews",
      "target": 34962
    },
    {
      "buffer": 0,
      "byteLength": 31312,
      "byteOffset": 145568,
      "byteStride": 16,
      "name": "floatBufferViews",
      "target": 34962
    }
  ],
  "buffers": [
    {
      "byteLength": 176880,
      "uri": "scene.bin"
    }
  ],
  "images": [
    {
      "uri": "textures/Material_0.003_baseColor.jpeg"
    },
    {
      "uri": "textures/Material_0.003_metallicRoughness.png"
    },
    {
      "uri": "textures/Material_0.003_normal.jpeg"
    }
  ],
  "materials": [
    {
      "doubleSided": true,
      "name": "Material_0.003",
      "normalTexture": {
        "index": 2
      },
      "pbrMetallicRoughness": {
        "baseColorTexture": {
          "index": 0
        },
        "metallicRoughnessTexture": {
          "index": 1
        }
      }
    }
  ],
  "meshes": [
    {
      "name": "Object_0",
      "primitives": [
        {
          "attributes": {
            "NORMAL": 1,
            "POSITION": 0,
            "TANGENT": 2,
            "TEXCOORD_0": 3,
            "TEXCOORD_1": 4,
            "TEXCOORD_2": 5,
            "TEXCOORD_3": 6
          },
          "indices": 7,
          "material": 0,
          "mode": 4
        }
      ]
    }
  ],
  "nodes": [
    {
      "children": [
        1
      ],
      "matrix": [
        1.0,
        0.0,
        0.0,
        0.0,
        0.0,
        2.220446049250313e-16,
        -1.0,
        0.0,
        0.0,
        1.0,
        2.220446049250313e-16,
        0.0,
        0.0,
        0.0,
        0.0,
        1.0
      ],
      "name": "Sketchfab_model"
    },
    {
      "children": [
        2
      ],
      "name": "root"
    },
    {
      "children": [
        3
      ],
      "matrix": [
        1.0,
        0.0,
        0.0,
        0.0,
        0.0,
        2.220446049250313e-16,
        1.0,
        0.0,
        0.0,
        -1.0,
        2.220446049250313e-16,
        0.0,
        0.0,
        0.0,
        0.0,
        1.0
      ],
      "name": "GLTF_SceneRootNode"
    },
    {
      "children": [
        4
      ],
      "name": "Mesh1.0_0"
    },
    {
      "mesh": 0,
      "name": "Object_4"
    }
  ],
  "samplers": [
    {
      "magFilter": 9729,
      "minFilter": 9987,
      "wrapS": 10497,
      "wrapT": 10497
    }
  ],
  "scene": 0,
  "scenes": [
    {
      "name": "Sketchfab_Scene",
      "nodes": [
        0
      ]
    }
  ],
  "textures": [
    {
      "sampler": 0,
      "source": 0
    },
    {
      "sampler": 0,
      "source": 1
    },
    {
      "sampler": 0,
      "source": 2
    }
  ]
}
