{
  "accessors": [
    {
      "bufferView": 2,
      "componentType": 5126,
      "count": 32374,
      "max": [
        98.9177017211914,
        117.08114624023438,
        142.267822265625
      ],
      "min": [
        -98.83009338378906,
        -100.7900619506836,
        4.828498840332031
      ],
      "type": "VEC3"
    },
    {
      "bufferView": 2,
      "byteOffset": 388488,
      "componentType": 5126,
      "count": 32374,
      "max": [
        0.999963641166687,
        0.9998319745063782,
        0.9999873042106628
      ],
      "min": [
        -0.9998946785926819,
        -0.9998379349708557,
        -0.9999991655349731
      ],
      "type": "VEC3"
    },
    {
      "bufferView": 3,
      "componentType": 5126,
      "count": 32374,
      "max": [
        0.9998894929885864,
        0.9999996423721313,
        0.9999220967292786,
        1.0
      ],
      "min": [
        -0.9999685883522034,
        -0.9992746114730835,
        -0.9996684193611145,
        -1.0
      ],
      "type": "VEC4"
    },
    {
      "bufferView": 1,
      "componentType": 5126,
      "count": 32374,
      "max": [
        0.9349157214164734,
        0.9799999594688416
      ],
      "min": [
        0.019999999552965164,
        0.019999999552965164
      ],
      "type": "VEC2"
    },
    {
      "bufferView": 1,
      "byteOffset": 258992,
      "componentType": 5126,
      "count": 32374,
      "max": [
        0.9349157214164734,
        0.9799999594688416
      ],
      "min": [
        0.019999999552965164,
        0.019999999552965164
      ],
      "type": "VEC2"
    },
    {
      "bufferView": 0,
      "componentType": 5125,
      "count": 189840,
      "type": "SCALAR"
    }
  ],
  "asset": {
    "extras": {
      "author": "lebeden (https://sketchfab.com/lebeden)",
      "license": "CC-BY-4.0 (http://creativecommons.org/licenses/by/4.0/)",
      "source": "https://sketchfab.com/3d-models/mushroom-52dada6fc6a740c784a1ff6cf27cb9e6",
      "title": "Mushroom"
    },
    "generator": "Sketchfab-12.67.0",
    "version": "2.0"
  },
  "bufferViews": [
    {
      "buffer": 0,
      "byteLength": 759360,
      "name": "floatBufferViews",
      "target": 34963
    },
    {
      "buffer": 0,
      "byteLength": 517984,
      "byteOffset": 759360,
      "byteStride": 8,
      "name": "floatBufferViews",
      "target": 34962
    },
    {
      "buffer": 0,
      "byteLength": 776976,
      "byteOffset": 1277344,
      "byteStride": 12,
      "name": "floatBufferViews",
      "target": 34962
    },
    {
      "buffer": 0,
      "byteLength": 517984,
      "byteOffset": 2054320,
      "byteStride": 16,
      "name": "floatBufferViews",
      "target": 34962
    }
  ],
  "buffers": [
    {
      "byteLength": 2572304,
      "uri": "scene.bin"
    }
  ],
  "images": [
    {
      "uri": "textures/Mushroom_baseColor.jpeg"
    },
    {
      "uri": "textures/Mushroom_normal.png"
    }
  ],
  "materials": [
    {
      "doubleSided": true,
      "name": "Mushroom",
      "normalTexture": {
        "index": 1
      },
      "pbrMetallicRoughness": {
        "baseColorFactor": [
          0.9,
          0.9,
          0.9,
          1.0
        ],
        "baseColorTexture": {
          "index": 0
        },
        "metallicFactor": 0.0,
        "roughnessFactor": 0.6
      }
    }
  ],
  "meshes": [
    {
      "name": "Object001_retopo_1_0_Mushroom_0",
      "primitives": [
        {
          "attributes": {
            "NORMAL": 1,
            "POSITION": 0,
            "TANGENT": 2,
            "TEXCOORD_0": 3,
            "TEXCOORD_1": 4
          },
          "indices": 5,
          "material": 0,
          "mode": 4
        }
      ]
    }
  ],
  "nodes": [
    {
      "children": [
        1
      ],
      "matrix": [
        1.0,
        0.0,
        0.0,
        0.0,
        0.0,
        2.220446049250313e-16,
        -1.0,
        0.0,
        0.0,
        1.0,
        2.220446049250313e-16,
        0.0,
        0.0,
        0.0,
        0.0,
        1.0
      ],
      "name": "Sketchfab_model"
    },
    {
      "children": [
        2
      ],
      "matrix": [
        1.0,
        0.0,
        0.0,
        0.0,
        0.0,
        0.0,
        1.0,
        0.0,
        0.0,
        -1.0,
        0.0,
        0.0,
        0.0,
        0.0,
        0.0,
        1.0
      ],
      "name": "ecfe89b993164200aaf3514e94fe57fe.fbx"
    },
    {
      "children": [
        3
      ],
      "name": "RootNode"
    },
    {
      "children": [
        4
      ],
      "matrix": [
        1.0,
        0.0,
        0.0,
        0.0,
        0.0,
        2.220446049250313e-16,
        -1.0,
        0.0,
        0.0,
        1.0,
        2.220446049250313e-16,
        0.0,
        2.21075439453125,
        0.0,
        12.82391357421875,
        1.0
      ],
      "name": "Object001_retopo_1_0"
    },
    {
      "mesh": 0,
      "name": "Object001_retopo_1_0_Mushroom_0"
    }
  ],
  "samplers": [
    {
      "magFilter": 9729,
      "minFilter": 9987,
      "wrapS": 10497,
      "wrapT": 10497
    },
    {
      "magFilter": 9728,
      "minFilter": 9728,
      "wrapS": 10497,
      "wrapT": 10497
    }
  ],
  "scene": 0,
  "scenes": [
    {
      "name": "Sketchfab_Scene",
      "nodes": [
        0
      ]
    }
  ],
  "textures": [
    {
      "sampler": 0,
      "source": 0
    },
    {
      "sampler": 1,
      "source": 1
    }
  ]
}
