{
  "accessors": [
    {
      "bufferView": 2,
      "componentType": 5126,
      "count": 65532,
      "max": [
        0.1653130054473877,
        3.697103977203369,
        0.2665730118751526
      ],
      "min": [
        -0.17961600422859192,
        3.3889191150665283,
        -0.1018500030040741
      ],
      "type": "VEC3"
    },
    {
      "bufferView": 2,
      "byteOffset": 786384,
      "componentType": 5126,
      "count": 65532,
      "max": [
        0.9999884366989136,
        0.9988599419593811,
        0.9989240169525146
      ],
      "min": [
        -0.9997916221618652,
        -0.9999957084655762,
        -0.9999704360961914
      ],
      "type": "VEC3"
    },
    {
      "bufferView": 1,
      "componentType": 5126,
      "count": 65532,
      "max": [
        0.9651340246200562,
        0.9986220002174377
      ],
      "min": [
        0.11655499786138535,
        0.01271899975836277
      ],
      "type": "VEC2"
    },
    {
      "bufferView": 0,
      "componentType": 5125,
      "count": 352521,
      "type": "SCALAR"
    },
    {
      "bufferView": 2,
      "byteOffset": 1572768,
      "componentType": 5126,
      "count": 65532,
      "max": [
        0.17064200341701508,
        3.758375883102417,
        0.21428300440311432
      ],
      "min": [
        -0.20938900113105774,
        3.4396069049835205,
        -0.17719799280166626
      ],
      "type": "VEC3"
    },
    {
      "bufferView": 2,
      "byteOffset": 2359152,
      "componentType": 5126,
      "count": 65532,
      "max": [
        0.9999933838844299,
        0.9993842840194702,
        0.999956488609314
      ],
      "min": [
        -0.9997786283493042,
        -0.9999547600746155,
        -0.9999986886978149
      ],
      "type": "VEC3"
    },
    {
      "bufferView": 1,
      "byteOffset": 524256,
      "componentType": 5126,
      "count": 65532,
      "max": [
        0.9984809756278992,
        0.9990019798278809
      ],
      "min": [
        0.006010999903082848,
        0.012633999809622765
      ],
      "type": "VEC2"
    },
    {
      "bufferView": 0,
      "byteOffset": 1410084,
      "componentType": 5125,
      "count": 344631,
      "type": "SCALAR"
    },
    {
      "bufferView": 2,
      "byteOffset": 3145536,
      "componentType": 5126,
      "count": 65532,
      "max": [
        0.17023399472236633,
        3.8273680210113525,
        0.30201300978660583
      ],
      "min": [
        -0.22131499648094177,
        3.504287004470825,
        -0.05230399966239929
      ],
      "type": "VEC3"
    },
    {
      "bufferView": 2,
      "byteOffset": 3931920,
      "componentType": 5126,
      "count": 65532,
      "max": [
        0.999882698059082,
        0.9999779462814331,
        0.9999998807907104
      ],
      "min": [
        -0.9987550377845764,
        -0.9991247653961182,
        -0.9994176626205444
      ],
      "type": "VEC3"
    },
    {
      "bufferView": 1,
      "byteOffset": 1048512,
      "componentType": 5126,
      "count": 65532,
      "max": [
        0.9677010178565979,
        0.997409999370575
      ],
      "min": [
        0.02965399995446205,
        0.0015170000260695815
      ],
      "type": "VEC2"
    },
    {
      "bufferView": 0,
      "byteOffset": 2788608,
      "componentType": 5125,
      "count": 347316,
      "type": "SCALAR"
    },
    {
      "bufferView": 2,
      "byteOffset": 4718304,
      "componentType": 5126,
      "count": 65532,
      "max": [
        0.14536499977111816,
        3.8570408821105957,
        0.29744601249694824
      ],
      "min": [
        -0.24684199690818787,
        3.4169669151306152,
        -0.054972000420093536
      ],
      "type": "VEC3"
    },
    {
      "bufferView": 2,
      "byteOffset": 5504688,
      "componentType": 5126,
      "count": 65532,
      "max": [
        0.9871653318405151,
        0.9999950528144836,
        0.9999572038650513
      ],
      "min": [
        -0.9999908208847046,
        -0.9999547004699707,
        -0.9799453020095825
      ],
      "type": "VEC3"
    },
    {
      "bufferView": 1,
      "byteOffset": 1572768,
      "componentType": 5126,
      "count": 65532,
      "max": [
        0.9960600137710571,
        0.9881749749183655
      ],
      "min": [
        0.004430999979376793,
        0.004641000181436539
      ],
      "type": "VEC2"
    },
    {
      "bufferView": 0,
      "byteOffset": 4177872,
      "componentType": 5125,
      "count": 346947,
      "type": "SCALAR"
    },
    {
      "bufferView": 2,
      "byteOffset": 6291072,
      "componentType": 5126,
      "count": 65532,
      "max": [
        0.042768001556396484,
        3.8062551021575928,
        0.27481499314308167
      ],
      "min": [
        -0.252564013004303,
        3.416106939315796,
        -0.2823610007762909
      ],
      "type": "VEC3"
    },
    {
      "bufferView": 2,
      "byteOffset": 7077456,
      "componentType": 5126,
      "count": 65532,
      "max": [
        0.9999269247055054,
        0.9998350143432617,
        0.994242250919342
      ],
      "min": [
        -0.9999999403953552,
        -0.9999966025352478,
        -0.9999966621398926
      ],
      "type": "VEC3"
    },
    {
      "bufferView": 1,
      "byteOffset": 2097024,
      "componentType": 5126,
      "count": 65532,
      "max": [
        0.9979169964790344,
        0.9999520182609558
      ],
      "min": [
        0.004275000188499689,
        0.0006639999919570982
      ],
      "type": "VEC2"
    },
    {
      "bufferView": 0,
      "byteOffset": 5565660,
      "componentType": 5125,
      "count": 341826,
      "type": "SCALAR"
    },
    {
      "bufferView": 2,
      "byteOffset": 7863840,
      "componentType": 5126,
      "count": 65532,
      "max": [
        0.0949769988656044,
        3.8574209213256836,
        0.19598199427127838
      ],
      "min": [
        -0.2555060088634491,
        3.3902359008789063,
        -0.23542900383472443
      ],
      "type": "VEC3"
    },
    {
      "bufferView": 2,
      "byteOffset": 8650224,
      "componentType": 5126,
      "count": 65532,
      "max": [
        0.9999975562095642,
        0.9999901652336121,
        0.9949052929878235
      ],
      "min": [
        -0.999997615814209,
        -0.9998243451118469,
        -0.999886691570282
      ],
      "type": "VEC3"
    },
    {
      "bufferView": 1,
      "byteOffset": 2621280,
      "componentType": 5126,
      "count": 65532,
      "max": [
        0.9983689785003662,
        0.9999920129776001
      ],
      "min": [
        7.000000096013537e-06,
        1.1000000085914508e-05
      ],
      "type": "VEC2"
    },
    {
      "bufferView": 0,
      "byteOffset": 6932964,
      "componentType": 5125,
      "count": 330828,
      "type": "SCALAR"
    },
    {
      "bufferView": 2,
      "byteOffset": 9436608,
      "componentType": 5126,
      "count": 65532,
      "max": [
        0.17023000121116638,
        3.8567988872528076,
        0.24361099302768707
      ],
      "min": [
        -0.25536298751831055,
        3.3890368938446045,
        -0.2825089991092682
      ],
      "type": "VEC3"
    },
    {
      "bufferView": 2,
      "byteOffset": 10222992,
      "componentType": 5126,
      "count": 65532,
      "max": [
        0.999971330165863,
        0.999983012676239,
        0.9996436834335327
      ],
      "min": [
        -0.9999933838844299,
        -0.9999709725379944,
        -0.999977707862854
      ],
      "type": "VEC3"
    },
    {
      "bufferView": 1,
      "byteOffset": 3145536,
      "componentType": 5126,
      "count": 65532,
      "max": [
        0.9971309900283813,
        0.9999930262565613
      ],
      "min": [
        0.0009399999980814755,
        3.000000106112566e-06
      ],
      "type": "VEC2"
    },
    {
      "bufferView": 0,
      "byteOffset": 8256276,
      "componentType": 5125,
      "count": 183603,
      "type": "SCALAR"
    },
    {
      "bufferView": 2,
      "byteOffset": 11009376,
      "componentType": 5126,
      "count": 36163,
      "max": [
        0.16896699368953705,
        3.8188929557800293,
        0.30196499824523926
      ],
      "min": [
        -0.24094000458717346,
        3.4181289672851563,
        -0.23341800272464752
      ],
      "type": "VEC3"
    },
    {
      "bufferView": 2,
      "byteOffset": 11443332,
      "componentType": 5126,
      "count": 36163,
      "max": [
        0.999882698059082,
        0.9998314380645752,
        0.9999976754188538
      ],
      "min": [
        -0.9999843835830688,
        -0.9999547004699707,
        -0.9994176626205444
      ],
      "type": "VEC3"
    },
    {
      "bufferView": 1,
      "byteOffset": 3669792,
      "componentType": 5126,
      "count": 36163,
      "max": [
        0.9983940124511719,
        0.9999979734420776
      ],
      "min": [
        0.004772000014781952,
        0.005514000076800585
      ],
      "type": "VEC2"
    },
    {
      "bufferView": 0,
      "byteOffset": 8990688,
      "componentType": 5125,
      "count": 101886,
      "type": "SCALAR"
    }
  ],
  "asset": {
    "extras": {
      "author": "Ivga (https://sketchfab.com/Ivga)",
      "license": "CC-BY-4.0 (http://creativecommons.org/licenses/by/4.0/)",
      "source": "https://sketchfab.com/3d-models/amanita-caesarea-mushroom-caucasus-01c1cbb4bc2c408695b2d4792bb7358b",
      "title": "Amanita caesarea (mushroom), Caucasus"
    },
    "generator": "Sketchfab-12.66.0",
    "version": "2.0"
  },
  "bufferViews": [
    {
      "buffer": 0,
      "byteLength": 9398232,
      "name": "floatBufferViews",
      "target": 34963
    },
    {
      "buffer": 0,
      "byteLength": 3959096,
      "byteOffset": 9398232,
      "byteStride": 8,
      "name": "floatBufferViews",
      "target": 34962
    },
    {
      "buffer": 0,
      "byteLength": 11877288,
      "byteOffset": 13357328,
      "byteStride": 12,
      "name": "floatBufferViews",
      "target": 34962
    }
  ],
  "buffers": [
    {
      "byteLength": 25234616,
      "uri": "scene.bin"
    }
  ],
  "extensionsUsed": [
    "KHR_materials_unlit"
  ],
  "images": [
    {
      "uri": "textures/Cezar_small2_model_baseColor.jpeg"
    }
  ],
  "materials": [
    {
      "doubleSided": true,
      "extensions": {
        "KHR_materials_unlit": {}
      },
      "name": "Cezar_small2_model",
      "pbrMetallicRoughness": {
        "baseColorTexture": {
          "index": 0
        },
        "metallicFactor": 0.0
      }
    }
  ],
  "meshes": [
    {
      "name": "Object_0",
      "primitives": [
        {
          "attributes": {
            "NORMAL": 1,
            "POSITION": 0,
            "TEXCOORD_0": 2
          },
          "indices": 3,
          "material": 0,
          "mode": 4
        }
      ]
    },
    {
      "name": "Object_1",
      "primitives": [
        {
          "attributes": {
            "NORMAL": 5,
            "POSITION": 4,
            "TEXCOORD_0": 6
          },
          "indices": 7,
          "material": 0,
          "mode": 4
        }
      ]
    },
    {
      "name": "Object_2",
      "primitives": [
        {
          "attributes": {
            "NORMAL": 9,
            "POSITION": 8,
            "TEXCOORD_0": 10
          },
          "indices": 11,
          "material": 0,
          "mode": 4
        }
      ]
    },
    {
      "name": "Object_3",
      "primitives": [
        {
          "attributes": {
            "NORMAL": 13,
            "POSITION": 12,
            "TEXCOORD_0": 14
          },
          "indices": 15,
          "material": 0,
          "mode": 4
        }
      ]
    },
    {
      "name": "Object_4",
      "primitives": [
        {
          "attributes": {
            "NORMAL": 17,
            "POSITION": 16,
            "TEXCOORD_0": 18
          },
          "indices": 19,
          "material": 0,
          "mode": 4
        }
      ]
    },
    {
      "name": "Object_5",
      "primitives": [
        {
          "attributes": {
            "NORMAL": 21,
            "POSITION": 20,
            "TEXCOORD_0": 22
          },
          "indices": 23,
          "material": 0,
          "mode": 4
        }
      ]
    },
    {
      "name": "Object_6",
      "primitives": [
        {
          "attributes": {
            "NORMAL": 25,
            "POSITION": 24,
            "TEXCOORD_0": 26
          },
          "indices": 27,
          "material": 0,
          "mode": 4
        }
      ]
    },
    {
      "name": "Object_7",
      "primitives": [
        {
          "attributes": {
            "NORMAL": 29,
            "POSITION": 28,
            "TEXCOORD_0": 30
          },
          "indices": 31,
          "material": 0,
          "mode": 4
        }
      ]
    }
  ],
  "nodes": [
    {
      "children": [
        1
      ],
      "matrix": [
        1.0,
        0.0,
        0.0,
        0.0,
        0.0,
        2.220446049250313e-16,
        -1.0,
        0.0,
        0.0,
        1.0,
        2.220446049250313e-16,
        0.0,
        0.0,
        0.0,
        0.0,
        1.0
      ],
      "name": "Sketchfab_model"
    },
    {
      "children": [
        2,
        3,
        4,
        5,
        6,
        7,
        8,
        9
      ],
      "name": "Cezar_small2_model.obj.cleaner.materialmerger.gles"
    },
    {
      "mesh": 0,
      "name": "Object_2"
    },
    {
      "mesh": 1,
      "name": "Object_3"
    },
    {
      "mesh": 2,
      "name": "Object_4"
    },
    {
      "mesh": 3,
      "name": "Object_5"
    },
    {
      "mesh": 4,
      "name": "Object_6"
    },
    {
      "mesh": 5,
      "name": "Object_7"
    },
    {
      "mesh": 6,
      "name": "Object_8"
    },
    {
      "mesh": 7,
      "name": "Object_9"
    }
  ],
  "samplers": [
    {
      "magFilter": 9729,
      "minFilter": 9987,
      "wrapS": 10497,
      "wrapT": 10497
    }
  ],
  "scene": 0,
  "scenes": [
    {
      "name": "Sketchfab_Scene",
      "nodes": [
        0
      ]
    }
  ],
  "textures": [
    {
      "sampler": 0,
      "source": 0
    }
  ]
}
